HIERARCHY
ROOT hip
{
	OFFSET 0.000000 0.000000 0.000000 
	CHANNELS 6 Xposition Yposition Zposition Xrotation Zrotation Yrotation
	JOINT abdomen
	{
		OFFSET 0.000000 3.402643 0.000000 
		CHANNELS 3 Xrotation Zrotation Yrotation
		JOINT chest
		{
			OFFSET 0.000000 8.438565 -0.680529 
			CHANNELS 3 Xrotation Zrotation Yrotation
			JOINT neck
			{
				OFFSET 0.000000 10.207942 -0.272212 
				CHANNELS 3 Xrotation Zrotation Yrotation
				JOINT head
				{
					OFFSET 0.000000 3.130431 0.000000 
					CHANNELS 3 Xrotation Zrotation Yrotation
					End Site
					{
						OFFSET 0.000000 3.130435 0.000000 
					}
				}
			}
			JOINT lCollar
			{
				OFFSET 3.470700 6.669187 -0.816635 
				CHANNELS 3 Yrotation Zrotation Xrotation
				JOINT lShldr
				{
					OFFSET 3.198488 0.000000 0.000000 
					CHANNELS 3 Zrotation Yrotation Xrotation
					JOINT lForeArm
					{
						OFFSET 10.139888 0.000000 0.000000 
						CHANNELS 3 Yrotation Zrotation Xrotation
						JOINT lHand
						{
							OFFSET 8.370511 0.000000 0.000000 
							CHANNELS 3 Zrotation Yrotation Xrotation
							End Site
							{
								OFFSET 4.083176 0.000000 0.000000 
							}
						}
					}
				}
			}
			JOINT rCollar
			{
				OFFSET -3.470700 6.669187 -0.816635 
				CHANNELS 3 Yrotation Zrotation Xrotation
				JOINT rShldr
				{
					OFFSET -3.198488 0.000000 0.000000 
					CHANNELS 3 Zrotation Yrotation Xrotation
					JOINT rForeArm
					{
						OFFSET -10.139888 0.000000 0.000000 
						CHANNELS 3 Yrotation Zrotation Xrotation
						JOINT rHand
						{
							OFFSET -8.370511 0.000000 0.000000 
							CHANNELS 3 Zrotation Yrotation Xrotation
							End Site
							{
								OFFSET -4.083176 0.000000 0.000000 
							}
						}
					}
				}
			}
		}
	}
	JOINT lThigh
	{
		OFFSET 5.308129 -1.633274 1.361059 
		CHANNELS 3 Xrotation Zrotation Yrotation
		JOINT lShin
		{
			OFFSET -2.041588 -20.007561 0.000000 
			CHANNELS 3 Xrotation Zrotation Yrotation
			JOINT lFoot
			{
				OFFSET 0.000000 -19.190928 -1.224953 
				CHANNELS 3 Xrotation Yrotation Zrotation
				End Site
				{
					OFFSET 0.000000 -2.449906 4.627600 
				}
			}
		}
	}
	JOINT rThigh
	{
		OFFSET -5.308129 -1.633274 1.361059 
		CHANNELS 3 Xrotation Zrotation Yrotation
		JOINT rShin
		{
			OFFSET 2.041588 -20.007561 0.000000 
			CHANNELS 3 Xrotation Zrotation Yrotation
			JOINT rFoot
			{
				OFFSET 0.000000 -19.190928 -1.224953 
				CHANNELS 3 Xrotation Yrotation Zrotation
				End Site
				{
					OFFSET 0.000000 -2.449906 4.627600 
				}
			}
		}
	}
}
MOTION
Frames: 11
Frame Time: 0.033333
16.213125 133.338440 11.559654 3.593750 24.472656 106.693504 22.826052 -6.329847 -8.500983 -6.298828 7.060547 -2.928487 -9.453037 8.457242 5.842645 42.343750 -7.558593 6.453794 2.000000 -2.000000 0.000000 -113.925781 -70.048828 52.315037 -80.274200 -0.817955 13.486662 -49.582359 26.448908 -28.962242 -2.000000 2.000000 0.000000 89.355469 -1.738281 12.607126 49.533951 -2.164562 61.939209 4.658286 -10.306640 -1.185212 -71.021187 8.514403 12.760441 69.768646 -1.050808 -3.880545 0.963603 -21.302896 -9.940798 -59.050106 -20.475910 -26.297346 69.182671 1.015564 3.836602 -5.887307 -0.559393 10.180023 
17.654224 132.037170 11.219657 3.447266 25.039061 106.537338 23.099741 -6.344739 -8.516953 -6.171874 6.943360 -2.928507 -9.519052 8.739136 7.195486 42.460941 -8.339843 7.674366 2.000000 -2.000000 0.000000 -115.791023 -70.000000 53.857418 -80.041061 -0.835123 13.370336 -49.461967 26.374849 -28.800415 -2.000000 2.000000 0.000000 88.964844 -2.226563 13.271105 51.934994 -2.138656 61.421959 6.433015 -11.500313 -1.679741 -73.339149 8.710915 12.263613 74.452492 -0.719892 -3.987679 -3.170144 -20.438301 -11.403559 -60.819836 -20.614786 -25.500334 73.613861 0.703609 3.909772 -9.269053 -1.739005 9.949691 
19.047428 130.783173 10.898820 3.349610 25.742189 106.449554 23.517597 -6.357573 -8.594607 -6.103515 6.777345 -2.996895 -9.465582 8.933433 8.760346 42.470703 -9.130858 9.119545 2.000000 -2.000000 0.000000 -117.519524 -69.843750 55.127548 -79.777802 -0.837597 13.331352 -49.426544 26.158070 -28.586086 -2.000000 2.000000 0.000000 88.535156 -2.724609 13.866723 54.273815 -2.107618 60.806908 8.195021 -12.550682 -2.206267 -75.816818 8.934763 11.703881 79.408928 -0.388821 -4.061985 -6.631106 -19.837292 -12.543781 -62.805740 -20.814089 -24.525566 78.452599 0.361312 3.985534 -12.259762 -2.978738 9.618984 
20.375818 129.597595 10.602613 3.291015 26.591795 106.396484 24.118607 -6.368360 -8.732861 -6.064453 6.591797 -3.115235 -9.375911 8.952673 10.551492 42.402344 -9.853515 10.781250 2.000000 -2.000000 0.000000 -119.130859 -69.609375 56.162113 -79.514450 -0.839452 13.302116 -49.434380 25.855291 -28.331305 -2.000000 2.000000 0.000000 88.046875 -3.242188 14.384081 56.481087 -2.069830 60.065182 9.907087 -13.427936 -2.763102 -78.317116 9.159341 11.111373 84.344635 -0.038476 -4.094388 -9.196323 -19.486250 -13.390311 -64.927101 -21.099655 -23.510250 83.534309 -0.000108 4.026067 -14.709171 -4.180310 9.169939 
21.621233 128.499115 10.338127 3.291016 27.578125 106.401009 24.828415 -6.442146 -8.926908 -5.996094 6.406250 -3.241037 -9.296953 8.750280 12.525780 42.265629 -10.468750 12.615413 2.000000 -2.000000 0.000000 -120.683594 -69.296875 57.021484 -79.241524 -0.842543 13.253387 -49.464046 25.504642 -28.056248 -2.000000 2.000000 0.000000 87.539063 -3.710938 14.735698 58.499191 -2.035867 59.215767 11.531948 -14.131314 -3.315411 -80.710144 9.384119 10.515828 89.144531 0.273487 -4.087658 -11.026794 -19.375742 -13.961071 -67.044617 -21.401289 -22.519285 88.596153 -0.322153 4.062500 -16.440647 -5.353599 8.697970 
22.765377 127.506104 10.113578 3.320313 28.632813 106.416016 25.582857 -6.638208 -9.156126 -5.869140 6.289063 -3.319243 -9.327443 8.356905 14.628257 42.119141 -10.976563 14.580082 2.000000 -2.000000 0.000000 -122.353508 -68.876953 57.871758 -78.919052 -0.841307 13.272879 -49.487350 25.095026 -27.703287 -2.000000 2.000000 0.000000 87.001953 -4.052734 14.892577 60.240185 -1.975788 58.250099 13.080523 -14.650743 -3.845609 -82.922951 9.617449 9.967196 93.590134 0.614627 -4.079961 -12.240078 -19.362749 -14.378726 -69.066811 -21.724201 -21.644268 93.432617 -0.673724 4.047313 -17.539371 -6.393264 8.209896 
23.789104 126.629799 9.936923 3.320313 29.736328 106.416016 26.259422 -7.006634 -9.398704 -5.624999 6.308595 -3.270411 -9.491727 7.774165 16.738979 41.982422 -11.406250 16.550806 2.000000 -2.000000 0.000000 -124.130859 -68.320313 58.808590 -78.516586 -0.828938 13.467787 -49.500660 24.518717 -27.208479 -2.000000 2.000000 0.000000 86.513672 -4.238281 14.775392 61.695602 -1.929948 57.195744 14.533707 -15.044134 -4.342667 -84.898994 9.843196 9.447674 97.569885 0.877532 -4.039292 -13.091234 -19.373928 -14.654249 -70.895668 -22.019543 -20.961727 97.801132 -0.996087 4.000699 -18.090986 -7.251306 7.913099 
24.674362 125.876785 9.812644 3.261719 30.771484 106.440544 26.783562 -7.566629 -9.632021 -5.263672 6.474609 -3.066406 -9.753827 7.067887 18.834721 41.806637 -11.796874 18.496096 2.000000 -2.000000 0.000000 -125.957031 -67.587891 59.785156 -78.013535 -0.797987 13.955198 -49.540413 23.806749 -26.609335 -2.000000 2.000000 0.000000 86.074219 -4.238281 14.432873 62.806507 -1.867882 56.034737 15.891321 -15.359871 -4.816262 -86.613304 10.095742 8.991611 101.012405 1.111544 -4.005387 -13.681106 -19.209282 -14.852912 -72.410629 -22.303698 -20.496565 101.526016 -1.269297 3.949537 -18.254784 -7.806669 7.675692 
25.404743 125.249535 9.742105 3.164063 31.757814 106.450455 27.144371 -8.286260 -9.884990 -4.814453 6.796876 -2.742986 -10.106694 6.223974 20.888285 41.503906 -12.207030 20.388563 2.000000 -2.000000 0.000000 -127.685555 -66.738281 60.722656 -77.459648 -0.751482 14.686235 -49.647953 23.078390 -26.017206 -2.000000 2.000000 0.000000 85.703125 -4.101563 13.935547 63.584312 -1.801263 54.805546 17.143427 -15.636427 -5.276603 -88.056557 10.332056 8.643463 103.839096 1.337566 -3.970737 -14.141409 -18.917322 -14.946071 -73.589134 -22.564882 -20.153128 104.568924 -1.484354 3.894260 -18.147051 -7.985987 7.644571 
25.966679 124.745087 9.723570 2.978516 32.607426 106.460342 27.322586 -9.117304 -10.119200 -4.355468 7.246094 -2.322987 -10.521308 5.255992 22.925217 41.035160 -12.617188 22.224428 2.000000 -2.000000 0.000000 -129.101563 -65.800781 61.485233 -76.886009 -0.698674 15.514595 -49.864994 22.452925 -25.615932 -2.000000 2.000000 0.000000 85.351563 -3.857422 13.378907 64.020500 -1.721841 53.537659 18.222681 -15.891596 -5.671302 -89.196472 10.536318 8.313432 106.034805 1.481277 -3.907681 -14.449047 -18.492178 -14.948563 -74.390114 -22.818903 -19.998444 106.841820 -1.630761 3.853516 -17.830942 -7.719569 7.779618 
26.351831 124.356438 9.752930 2.695313 33.349609 106.464844 27.344469 -10.003819 -10.347086 -3.896484 7.773438 -1.854149 -10.990263 4.132000 24.930161 40.380863 -12.998046 24.031010 2.000000 -2.000000 0.000000 -130.175781 -64.853516 62.167965 -76.304024 -0.651373 16.255363 -50.180111 21.968971 -25.398584 -2.000000 2.000000 0.000000 85.009766 -3.544922 12.861327 64.114609 -1.638221 52.211658 19.071930 -16.113861 -6.027256 -90.045319 10.751225 8.054892 107.597183 1.559589 -3.862399 -14.689949 -17.992056 -14.918170 -74.856194 -23.041359 -19.938305 108.374550 -1.728392 3.794414 -17.317080 -6.936327 8.099611 
